<svg xmlns="http://www.w3.org/2000/svg" viewBox="0 0 16 13.73"><defs><style>.cls-1{fill:#8247e5;}</style></defs><g id="图层_2" data-name="图层 2"><g id="图层_1-2" data-name="图层 1"><path class="cls-1" d="M12.07,4.2a1,1,0,0,0-1,0L8.77,5.53,7.2,6.4,4.9,7.74a1,1,0,0,1-1,0l-1.83-1a1,1,0,0,1-.5-.84V3.79A.91.91,0,0,1,2.07,3l1.8-1a1,1,0,0,1,1,0l1.8,1a1,1,0,0,1,.5.84V5.12l1.57-.9V2.89a.94.94,0,0,0-.5-.84L4.9.13a1,1,0,0,0-1,0L.5,2.05a.94.94,0,0,0-.5.84V6.75a.94.94,0,0,0,.5.84L3.9,9.51a1,1,0,0,0,1,0L7.2,8.2l1.57-.9L11.07,6a1,1,0,0,1,1,0l1.8,1a1,1,0,0,1,.51.84V9.92a1,1,0,0,1-.51.84l-1.8,1a1,1,0,0,1-1,0l-1.8-1a1,1,0,0,1-.5-.85V8.61l-1.57.9v1.33a1,1,0,0,0,.5.85l3.4,1.91a1,1,0,0,0,1,0l3.4-1.91a1,1,0,0,0,.5-.85V7a.94.94,0,0,0-.5-.84Z"/></g></g></svg>