<svg xmlns:xlink="http://www.w3.org/1999/xlink" xmlns="http://www.w3.org/2000/svg" viewBox="0 0 975.04 226.77" width="975.04"  height="226.77" ><defs><style>.cls-1{fill:#ea2625;}.cls-1,.cls-2,.cls-3{fill-rule:evenodd;}.cls-2{fill:#faab18;}.cls-3{fill:#fff;}</style></defs><g id="图层_2" data-name="图层 2"><g id="图层_1-2" data-name="图层 1"><path class="cls-1" d="M115.64,0A68.26,68.26,0,0,0,84.35,52.08,84.78,84.78,0,0,0,89,85.42c3.28,10.14,8,19.62,13,29l3.3,6.27c4.68,8.92,9.37,17.76,13.3,27,5,11.26,7.63,23.13,5.82,35.6a43.75,43.75,0,0,1-11.79,24.95c-9.68,10.05-21.77,12.7-35,10.66a75,75,0,0,1-18.44-5.37A113.74,113.74,0,0,1,113.75,0Zm-5.25,39.61a43.08,43.08,0,0,1,43.16-26.68,58.3,58.3,0,0,1,30,11,113.75,113.75,0,0,1-57.75,202.8c15.72-14,22.15-32.43,21.69-54a88.92,88.92,0,0,0-8.61-35.53c-4.77-10.58-10.28-20.86-15.65-31.06-5.14-10-10.43-20-13.68-30.84C105.93,63.35,105.4,51.41,110.39,39.61Z"/><path class="cls-2" d="M113.71,38.41l.08.08A75.86,75.86,0,0,1,147.2,182.33a85.87,85.87,0,0,0-8.31-45.05c-4.77-10.58-10.28-20.86-15.65-31.14-5.14-9.9-10.43-19.88-13.68-30.76-3.63-12-4.16-24,.83-35.83a7.27,7.27,0,0,1,.53-1.14ZM85.57,43.86a62.55,62.55,0,0,0-1.21,8.31A85.84,85.84,0,0,0,89,85.43c4,12.47,10.28,23.81,16.33,35.3,4.69,8.92,9.37,17.84,13.3,27,5,11.26,7.64,23.13,5.75,35.6a39.93,39.93,0,0,1-1.21,6.12,64.48,64.48,0,0,1-9.45.61A75.81,75.81,0,0,1,85.57,43.86Z"/><path class="cls-1" d="M113.72,66.77A47.39,47.39,0,0,1,144,150.67a92.39,92.39,0,0,0-5.14-13.38c-4.77-10.58-10.28-20.86-15.65-31.14-5.14-10-10.43-20-13.68-30.84a72.45,72.45,0,0,1-2-8.16A54.67,54.67,0,0,1,113.72,66.77ZM86.26,75.62c.76,3.25,1.66,6.57,2.72,9.82,3.28,10.15,8.08,19.63,13,29l3.31,6.26c4.69,8.85,9.37,17.77,13.3,26.91a80.15,80.15,0,0,1,4.54,13,44.08,44.08,0,0,1-9.45,1,47.43,47.43,0,0,1-27.44-86Z"/><path class="cls-3" d="M932.2,53.62a7.18,7.18,0,0,0-2.14,5.19l-.2,6.6a7.41,7.41,0,0,0,7.47,7.4h7.93a6.83,6.83,0,0,0,5.26-2.27,7.26,7.26,0,0,0,2.14-5.33v-6.4a7.22,7.22,0,0,0-2.14-5.26,7.33,7.33,0,0,0-5.26-2.13h-7.8A7.52,7.52,0,0,0,932.2,53.62ZM922.53,105h15.13v55.45H922.39a6.79,6.79,0,0,0-5.19,2.2,7.07,7.07,0,0,0-2.27,5.2,7.43,7.43,0,0,0,7.4,7.46h45.32a7.43,7.43,0,1,0-.2-14.86H952.58V97.62a7.24,7.24,0,0,0-2.13-5.34A7.1,7.1,0,0,0,945.19,90H922.53a7.13,7.13,0,0,0-5.27,2.26,7.24,7.24,0,0,0-2.13,5.34,7.06,7.06,0,0,0,2.13,5.26A7.36,7.36,0,0,0,922.53,105Zm-51.09-.21a7.54,7.54,0,0,1,5.33,2.2,7.8,7.8,0,0,1,2.27,5.27l1.87,55.85a7.91,7.91,0,0,0,2.2,5.19,6.72,6.72,0,0,0,5.19,2.2,7.24,7.24,0,0,0,5.34-2.13,6.84,6.84,0,0,0,2.13-5.26l-1.87-55.65a22.4,22.4,0,0,0-6.8-15.8,21.61,21.61,0,0,0-15.66-6.46h-9.19c-4.27,0-9.07,1.66-14.53,5.13l-11.87,7.73V65.55a7.43,7.43,0,0,0-7.46-7.4,7.19,7.19,0,0,0-5.27,2.13A6.86,6.86,0,0,0,821,65.41V168.05h-.06a7.44,7.44,0,0,0,3.59,6.73,7.44,7.44,0,0,0,11.27-6.73V120.8L856.91,107a12.35,12.35,0,0,1,6.2-2.2ZM783.14,73H745.42v42.72h37.72a7.57,7.57,0,0,0,7.46-7.4V80.45A7.62,7.62,0,0,0,783.14,73ZM783,58A22.54,22.54,0,0,1,805.3,80.41v27.86A22.3,22.3,0,0,1,783,130.59H745.32v37.46a7.34,7.34,0,0,1-2.14,5.26,7.54,7.54,0,0,1-5.33,2.2,7.28,7.28,0,0,1-5.33-2.2,6.8,6.8,0,0,1-2.2-5.26V58Zm-75.28,53.79A22.34,22.34,0,0,0,701,96.22,21.34,21.34,0,0,0,685.64,90H678.7a28,28,0,0,0-15.32,4.4l-13.6,8.26v-5a7.59,7.59,0,0,0-2.2-5.34A7.22,7.22,0,0,0,642.32,90a7,7,0,0,0-5.2,2.26,7.55,7.55,0,0,0-2.2,5.27v70.51a7.44,7.44,0,0,0,14.86,0V120.54l20.33-13.13a12.87,12.87,0,0,1,7.26-2.6h7.2c5.26,0,8,2.6,8.13,7.8L695,168.06a7.06,7.06,0,0,0,2.26,5.47,7.59,7.59,0,0,0,5.13,1.93,7.11,7.11,0,0,0,5.34-2.2,6.69,6.69,0,0,0,2.06-5.2Zm-116.71-6.55H572.39a9.38,9.38,0,0,0-6.26,2.4l-4.34,3.59a6.92,6.92,0,0,0-2.93,5.8v11.47H604V118.12a8.08,8.08,0,0,0-2.6-6.4l-4.33-3.8A10,10,0,0,0,591.05,105.19Zm1.18-15c5.2,0,10.2,2.2,14.86,6.53l5.54,5.33c4,3.6,6,8.94,6,16.07v18a7.55,7.55,0,0,1-7.39,7.46H558.71v4.34a8,8,0,0,0,3.27,6.46l4.33,3.6a10.93,10.93,0,0,0,6.73,2.73h38.19a7.11,7.11,0,0,1,5.26,2.14,7.46,7.46,0,0,1-5.2,12.72H572a23.07,23.07,0,0,1-8.2-1.66,21.45,21.45,0,0,1-6.33-3.4l-6.6-5.8a19.61,19.61,0,0,1-5.2-6.93,20.08,20.08,0,0,1-2.06-8.06V115.54a20.39,20.39,0,0,1,2.2-7.86,21,21,0,0,1,5.73-7.73l6.2-4.87a21,21,0,0,1,13.59-4.93ZM490.48,104.82h-10a9.63,9.63,0,0,0-6.27,2.6l-4.6,3.8a7.14,7.14,0,0,0-2.66,6v24.72a7.69,7.69,0,0,0,2.93,5.67l4.86,4.33a7.48,7.48,0,0,0,4.87,2h12.06a9.77,9.77,0,0,0,5.87-2.67l11.73-10a7.69,7.69,0,0,0,2.73-5.87v-11.2a8.23,8.23,0,0,0-3.07-6.66l-12.06-10.33A9.11,9.11,0,0,0,490.48,104.82ZM491,90a24,24,0,0,1,15.92,6.2l5.14,4.33-.2-2.93a7.59,7.59,0,0,1,12.86-5.27A7.14,7.14,0,0,1,527,97.55v83.31a20.8,20.8,0,0,1-7.53,16.19l-6.06,5.2a19,19,0,0,1-6.47,3.53,21.39,21.39,0,0,1-7.86,1.53H466.77a7.17,7.17,0,0,1-5.26-2.13,7,7,0,0,1-2.13-5.26,7.08,7.08,0,0,1,2.13-5.27,7.39,7.39,0,0,1,5.26-2.06H499a8.18,8.18,0,0,0,5.4-2.2l5.06-4.34a6.12,6.12,0,0,0,2.6-5.13V158.33c-7,7-13.79,10.53-20.32,10.53H480.3a24.13,24.13,0,0,1-15.93-6l-5.53-5a18.49,18.49,0,0,1-4.73-6.73,21.37,21.37,0,0,1-2-8.66V117.74a25.49,25.49,0,0,1,2-9.93,18,18,0,0,1,4.73-7l6-5.19A23.05,23.05,0,0,1,480.24,90ZM393.44,58.81l-.2,6.6a7.41,7.41,0,0,0,7.4,7.4h8a6.83,6.83,0,0,0,5.26-2.27A7.21,7.21,0,0,0,416,65.21v-6.4a7.34,7.34,0,0,0-7.26-7.39H401a7.21,7.21,0,0,0-5.33,2.13A7,7,0,0,0,393.44,58.81Zm42.85,103.81a7.37,7.37,0,0,0-5.4-2.13H416.1V97.58A7.62,7.62,0,0,0,414,92.31a7.22,7.22,0,0,0-5.26-2.26H386a7.14,7.14,0,0,0-5.27,2.26,7.56,7.56,0,0,0-2.2,5.33,7.42,7.42,0,0,0,2.2,5.27A7.31,7.31,0,0,0,386,105H401.1v55.45H385.91a6.79,6.79,0,0,0-5.27,2.2,7.29,7.29,0,0,0-1.6,8.06,7.4,7.4,0,0,0,6.87,4.6h45.25a7.33,7.33,0,0,0,5.13-2.13,7.32,7.32,0,0,0,0-10.6ZM284.44,58V175.51h67.38a7.51,7.51,0,0,0,7.66-7.39,7.51,7.51,0,0,0-7.46-7.47H299.3V124.26H322a7.4,7.4,0,0,0,5.26-2.2A7.58,7.58,0,0,0,322,109.2H299.3V73h52.52a7.69,7.69,0,0,0,5.39-2.2,7.56,7.56,0,0,0,2.2-5.33A7.75,7.75,0,0,0,351.82,58Z"/></g></g></svg>